<svg xmlns="http://www.w3.org/2000/svg" viewBox="0 0 3443.876 482.726" fill="#54595C" fill-rule="evenodd"><g transform="matrix(1 0 0 -1 0 482.726)"><path d="M2635.206 25.156L2641.234 49.223C2643.26 56.973 2638.686 64.915 2631.016 66.963C2629.824 67.281 2628.596 67.443 2627.363 67.444L2588.653 67.444L2591.277 78.914L2647.899 78.914L2652.542 101.271L2568.944 101.271C2568.944 101.271 2558.126 60.387 2558.126 60.387C2558.107 60.305 2558.088 60.222 2558.069 60.139C2556.445 52.859 2561.03 45.64 2568.311 44.016C2569.328 43.789 2570.209 43.692 2571.252 43.692L2571.252 43.692C2582.187 43.692 2612.515 43.692 2612.515 43.692L2608.381 31.26L2551.621 31.26L2544.854 6.713C2544.854 6.713 2611.682 6.713 2611.682 6.713C2622.798 6.632 2632.522 14.256 2635.206 25.156Z"></path><path d="M3014.318 24.156L3019.153 42.275C3020.129 46.583 3019.453 51.105 3017.263 54.931C3017.809 55.388 3017.697 55.212 3018.387 55.641L3020.955 57.564C3023.212 60.416 3024.75 63.778 3025.436 67.363L3029.421 83.796C3030.429 92.048 3024.626 99.564 3016.459 100.582C3015.919 100.65 3015.376 100.687 3014.832 100.694L2966.987 100.847C2957.558 100.859 2947.379 94.491 2944.535 84.989L2939.897 64.909C2939.68 62.871 2940.075 60.814 2941.03 59.006C2941.403 58.334 2941.689 57.616 2941.88 56.87C2932.958 48.559 2932.941 39 2929.871 28.706C2926.831 19.909 2931.424 10.287 2940.131 7.215C2942.433 6.403 2944.883 6.11 2947.308 6.357C2947.308 6.357 2991.416 6.282 2991.416 6.282C3002.176 6.308 3011.574 13.643 3014.318 24.156ZM2987.665 29.778L2958.749 29.778L2961.454 42.823L2990.543 42.823L2987.665 29.778ZM2996.417 65.975L2968.614 65.975L2971.215 78.517L2999.184 78.517L2996.417 65.975Z"></path><path d="M2764.406 25.156L2770.433 49.223C2772.46 56.973 2767.885 64.915 2760.216 66.963C2759.023 67.281 2757.796 67.443 2756.563 67.444L2717.852 67.444L2720.476 78.914L2777.098 78.914L2781.741 101.271L2698.143 101.271C2698.143 101.271 2687.326 60.387 2687.326 60.387C2687.306 60.305 2687.287 60.222 2687.268 60.139C2685.644 52.859 2690.229 45.64 2697.51 44.016C2698.527 43.789 2699.408 43.692 2700.451 43.692L2700.451 43.692C2711.386 43.692 2741.714 43.692 2741.714 43.692L2737.581 31.26L2680.82 31.26L2674.053 6.713C2674.053 6.713 2740.881 6.713 2740.881 6.713C2751.997 6.632 2761.721 14.256 2764.406 25.156Z"></path><path d="M2902.37 82.695C2904.379 90.561 2899.697 98.583 2891.913 100.613C2890.76 100.914 2889.575 101.07 2888.384 101.079L2836.552 101.541C2825.813 101.575 2816.293 94.568 2813.029 84.23L2798.055 25.219L2797.842 21.508C2798.416 13.528 2804.904 7.299 2812.82 7.127L2863.309 6.712C2874.98 6.694 2885.18 14.668 2888.093 26.087L2902.37 82.695ZM2860.795 30.702L2828.121 30.702L2840.39 78.573L2873.017 78.573L2860.795 30.702Z"></path><path d="M1028.785 326.465C961.665 327.11 897.221 327.767 835.86 328.429L835.403 327.031L793.284 197.94L861.764 197.941C861.764 197.941 893.347 294.939 893.347 294.939L915.992 294.939L970.96 294.94C995.177 294.94 1016.366 306.835 1028.785 326.465Z"></path><path d="M841.206 344.816C903.445 344.671 968.826 344.479 1036.925 344.24C1044.063 365.545 1048.201 377.896 1050.706 385.375L1063.856 424.626C1064.812 427.479 1065.461 430.361 1065.822 433.237C1116.049 433.237 1039.546 433.237 870.056 433.237L862.91 411.335L942.122 411.336L981.195 411.336L985.926 410.87C989.439 410.042 988.56 405.305 988.396 404.67L980.712 380.938C979.546 376.872 977.331 373.193 974.296 370.276C971.029 367.532 966.873 366.106 962.628 366.271L927.827 366.274L848.21 366.282L841.206 344.816Z"></path><path d="M872.915 441.998L1066.042 441.998C1064.771 459.054 1053.647 474.519 1036.602 480.351C1031.872 481.97 1027.643 482.674 1022.649 482.674C993.898 482.673 886.186 482.671 886.186 482.671L873.799 444.709L872.915 441.998Z"></path><path d="M1204.969 220.181C1138.038 221.385 1100.377 222.509 1100.385 223.451C1100.393 224.42 1140.183 225.087 1210.637 225.455C1225.838 240.516 1236.944 259.367 1242.775 280.188L1257.24 324.4C1234.221 324.595 1211.429 324.792 1188.877 324.991L1175.527 283.944C1174.36 279.878 1172.146 276.199 1169.111 273.282C1165.844 270.538 1161.688 269.112 1157.442 269.277L1111.853 269.281C1110.118 269.367 1106.031 269.883 1105.132 270.747C1104.261 271.584 1104.324 274.739 1104.677 276.076C1104.677 276.076 1111.295 296.414 1120.792 325.602C1097.712 325.813 1074.908 326.025 1052.396 326.239L1038.575 283.995L1033.708 265.624C1027.277 238.489 1034.74 209.272 1065.083 201.431C1074.06 198.946 1083.343 197.772 1092.649 197.945L1138.136 197.945C1160.294 197.579 1184.82 203.865 1202.499 218.081C1203.332 218.771 1204.155 219.471 1204.969 220.181Z"></path><path d="M1058.261 344.164C1080.804 344.082 1103.637 343.996 1126.747 343.904C1136.404 373.584 1143.918 396.678 1143.918 396.678C1145.085 400.743 1147.299 404.422 1150.334 407.339C1153.601 410.083 1157.757 411.51 1162.003 411.344L1207.593 411.34C1209.328 411.255 1213.414 410.738 1214.313 409.874C1215.149 409.071 1215.133 405.986 1214.794 404.677L1194.937 343.621C1217.534 343.524 1240.368 343.422 1263.428 343.315L1280.871 396.626L1285.737 414.997C1287.87 423.994 1288.391 432.966 1287.202 441.266C1266.562 440.785 1236.212 440.427 1199.138 440.273C1197.172 440.265 1195.882 439.274 1195.554 437.519C1195.109 435.147 1192.635 433.237 1189.985 433.237C1189.985 433.237 1183.747 433.237 1091.24 433.237C1085.103 423.271 1080.243 412.206 1076.67 400.433L1058.261 344.164Z"></path><path d="M1097.181 441.998L1287.092 441.998C1284.333 459.67 1273.732 474.182 1254.319 479.202C1245.355 481.679 1236.087 482.849 1226.796 482.677L1181.31 482.676C1144.045 483.292 1115.928 467.125 1097.181 441.998Z"></path><path d="M1617.017 215.103C1593.677 215.323 1570.909 215.545 1548.759 215.768L1542.958 197.952L1611.433 197.953L1617.017 215.103Z"></path><path d="M1457.654 216.732C1431.883 217.019 1407.219 217.306 1383.762 217.593L1387.426 197.949L1460.757 197.95L1457.654 216.732Z"></path><path d="M1314.472 218.487C1286.494 218.869 1260.873 219.248 1237.841 219.621L1220.144 197.947L1297.21 197.948L1314.472 218.487Z"></path><path d="M1242.718 225.595C1266.167 225.679 1292.204 225.737 1320.59 225.768L1371.039 285.797L1382.232 225.796C1405.695 225.792 1430.372 225.775 1456.165 225.742L1440.106 322.921C1400.516 323.225 1361.44 323.536 1322.94 323.852L1242.718 225.595Z"></path><path d="M1551.95 225.567C1574.154 225.515 1596.976 225.454 1620.365 225.384L1650.396 317.615L1653.61 321.368C1629.937 321.531 1606.401 321.695 1583.014 321.862L1583.125 321.312L1551.95 225.567Z"></path><path d="M1715.742 393.927C1688.268 394.337 1663.43 394.742 1641.507 395.139L1639.774 393.155L1639.332 395.178C1609.919 395.715 1585.857 396.237 1567.834 396.736L1579.003 341.643C1609.259 341.463 1639.763 341.276 1670.491 341.082L1715.742 393.927Z"></path><path d="M1567.162 400.048C1585.014 400.312 1608.899 400.521 1638.131 400.674L1620.212 482.683L1555.503 482.682L1550.41 482.682L1478.419 482.681L1404.562 394.661L1388.211 482.679L1314.885 482.678L1337.786 342.959C1371.701 342.791 1406.053 342.614 1440.802 342.426L1551.421 477.691L1567.162 400.048Z"></path><path d="M1646.377 400.715C1668.706 400.821 1693.921 400.896 1721.748 400.941L1791.745 482.685L1717.975 482.684L1646.377 400.715Z"></path><path d="M1950.814 212.375C1899.628 212.736 1849.704 213.112 1801.356 213.5C1806.569 208 1813.572 203.775 1822.599 201.442C1831.577 198.958 1840.859 197.784 1850.165 197.956L1946.119 197.958L1950.814 212.375Z"></path><path d="M1793.804 224.744C1845.685 224.519 1899.409 224.258 1954.586 223.962L1969.347 269.295L1869.369 269.293C1867.634 269.378 1863.547 269.895 1862.648 270.759C1861.777 271.595 1861.84 274.751 1862.193 276.088C1862.193 276.088 1867.381 292.031 1876.461 319.938C1853.77 320.074 1830.942 320.214 1807.984 320.357L1796.091 284.007L1791.224 265.636C1787.864 251.458 1788.297 236.712 1793.804 224.744Z"></path><path d="M1899.767 391.563C1876.116 391.831 1853.35 392.099 1831.544 392.367L1814.455 340.135C1837.395 339.978 1860.206 339.818 1882.877 339.657C1891.78 367.017 1899.849 391.816 1899.767 391.563Z"></path><path d="M1834.348 400.973C1856.32 400.955 1879.255 400.924 1903.076 400.881C1904.288 403.286 1905.9 405.476 1907.851 407.351C1911.118 410.095 1915.274 411.521 1919.519 411.356L2015.785 411.352L2039.013 482.689L1938.826 482.688C1883.861 483.596 1848.797 447.992 1834.348 400.973Z"></path><path d="M2149.007 211.096C2130.631 211.203 2112.12 211.315 2093.49 211.431C2062.691 211.622 2032.22 211.819 2002.138 212.022C2007.173 207.244 2013.702 203.564 2021.901 201.446C2030.878 198.961 2040.161 197.787 2049.467 197.959L2094.954 197.96C2113.067 197.661 2132.762 201.807 2149.007 211.096Z"></path><path d="M1993.581 223.747C2026.47 223.563 2059.832 223.366 2093.587 223.157C2117.454 223.009 2141.125 222.857 2164.569 222.702C2181.253 238.192 2193.399 258.086 2199.593 280.203L2212.011 318.16C2189.415 318.263 2166.598 318.371 2143.574 318.484L2132.345 283.958C2131.178 279.893 2128.964 276.214 2125.929 273.297C2122.662 270.553 2118.506 269.126 2114.26 269.292L2068.671 269.296C2066.936 269.382 2062.849 269.898 2061.95 270.762C2061.079 271.598 2061.142 274.754 2061.495 276.091C2061.495 276.091 2066.423 291.234 2075.401 318.827C2052.747 318.944 2029.911 319.065 2006.903 319.191L1995.393 284.01L1990.526 265.639C1987.072 251.064 1987.626 235.889 1993.581 223.747Z"></path><path d="M2234.977 388.354C2211.788 388.543 2188.945 388.735 2166.486 388.93L2149.795 337.61C2172.804 337.421 2195.607 337.23 2218.188 337.037L2234.977 388.354Z"></path><path d="M2098.409 389.538C2075.149 389.753 2052.374 389.97 2030.132 390.189L2013.284 338.694C2036.262 338.518 2059.068 338.34 2081.691 338.161C2090.295 364.603 2098.468 389.723 2098.409 389.538Z"></path><path d="M2033.518 400.544C2055.859 400.471 2078.732 400.389 2102.092 400.298C2103.332 402.934 2105.044 405.327 2107.152 407.354C2110.419 410.098 2114.576 411.525 2118.821 411.359L2164.411 411.355C2166.146 411.269 2170.232 410.753 2171.131 409.889C2171.967 409.086 2171.951 406.001 2171.612 404.692L2170.091 400.014C2192.525 399.915 2215.339 399.807 2238.497 399.692L2242.555 415.012C2244.283 422.3 2244.953 429.573 2244.513 436.485C2294.681 436.485 2212.531 436.485 2050.119 436.485C2043.018 425.726 2037.479 413.569 2033.518 400.544Z"></path><path d="M2056.503 445.245L2243.31 445.245C2239.809 461.439 2229.352 474.506 2211.137 479.217C2202.173 481.694 2192.905 482.864 2183.614 482.692L2138.128 482.691C2102.487 483.28 2075.214 468.517 2056.503 445.245Z"></path><path d="M2188.122 222.544C2211.685 222.385 2235.007 222.223 2258.06 222.057L2279.117 256.161L2362.65 256.163L2361.471 221.28C2384.468 221.1 2407.126 220.916 2429.415 220.731L2433.65 317.262C2373.233 317.473 2310.66 317.721 2246.228 318.006L2188.122 222.544Z"></path><path d="M2428.931 209.694C2406.675 209.785 2384.051 209.882 2361.09 209.987L2360.683 197.964L2428.416 197.965L2428.931 209.694Z"></path><path d="M2250.942 210.528C2227.896 210.649 2204.587 210.777 2181.041 210.91L2173.159 197.961L2243.184 197.962L2250.942 210.528Z"></path><path d="M2436.702 386.852C2412.966 387.013 2389.454 387.177 2366.199 387.346L2365.427 335.729C2388.726 335.514 2411.732 335.297 2434.431 335.079L2436.702 386.852Z"></path><path d="M2361.351 387.381C2336.863 387.559 2312.663 387.74 2288.787 387.926L2257.605 336.697C2281.508 336.489 2305.148 336.279 2328.51 336.067L2361.351 387.381Z"></path><path d="M2295.769 399.396C2341.821 399.149 2389.058 398.873 2437.216 398.568L2439.204 443.871C2424.904 443.714 2408.751 443.594 2391.067 443.521C2389.101 443.512 2387.811 442.521 2387.483 440.767C2387.039 438.395 2384.564 436.485 2381.915 436.485C2381.915 436.485 2379.329 436.485 2318.344 436.485L2295.769 399.396Z"></path><path d="M2323.677 445.245L2439.264 445.245L2440.907 482.695L2346.471 482.694L2323.677 445.245Z"></path><path d="M2465.234 220.428C2488.444 220.229 2511.217 220.027 2533.515 219.824L2565.191 316.853C2542.752 316.914 2519.942 316.981 2496.778 317.053L2465.234 220.428Z"></path><path d="M2530.085 209.319C2507.746 209.393 2484.934 209.475 2461.687 209.564L2457.901 197.966L2526.379 197.967L2530.085 209.319Z"></path><path d="M2523.204 398C2546.208 397.842 2568.991 397.68 2591.524 397.514L2596.044 411.361L2659.965 411.362L2683.193 482.699L2486.884 482.696L2474.69 445.245L2501.081 445.245C2495.17 444.938 2486.133 444.655 2474.418 444.409L2463.656 411.359L2527.566 411.36L2523.204 398Z"></path><path d="M2587.734 385.905C2565.191 386.035 2542.4 386.172 2519.39 386.315L2502.446 334.413C2525.557 334.182 2548.313 333.95 2570.697 333.717L2587.734 385.905Z"></path><path d="M2618.417 219.018C2641.839 218.787 2664.607 218.554 2686.667 218.32L2718.706 316.517C2696.375 316.553 2673.555 316.596 2650.271 316.646L2618.417 219.018Z"></path><path d="M2683.599 208.919C2661.477 208.959 2638.65 209.009 2615.171 209.069L2611.549 197.968L2680.027 197.969L2683.599 208.919Z"></path><path d="M2676.445 396.866C2699.543 396.683 2722.319 396.496 2744.74 396.307L2772.929 482.701L2704.451 482.7L2676.445 396.866Z"></path><path d="M2741.084 385.103C2718.638 385.208 2695.837 385.32 2672.717 385.44L2655.545 332.811C2678.759 332.556 2701.508 332.3 2723.772 332.044L2741.084 385.103Z"></path><path d="M2707.844 218.093C2731.475 217.836 2754.237 217.579 2776.06 217.322L2808.323 316.405C2786.105 316.424 2763.304 316.45 2739.947 316.484L2707.844 218.093Z"></path><path d="M2846.977 216.443C2873.799 216.092 2898.712 215.744 2921.538 215.399L2954.493 316.401C2913.816 316.365 2870.29 316.362 2824.174 316.393L2846.977 216.443Z"></path><path d="M2919.423 208.916C2897.673 208.859 2874.054 208.821 2848.72 208.803L2851.191 197.972L2915.852 197.973L2919.423 208.916Z"></path><path d="M2773.287 208.805C2751.384 208.819 2728.545 208.845 2704.839 208.882L2701.279 197.97L2769.759 197.971L2773.287 208.805Z"></path><path d="M2765.933 396.126C2804.712 395.793 2842.373 395.451 2878.735 395.104L2858.848 482.702L2794.18 482.701L2765.933 396.126Z"></path><path d="M2911.555 394.786C2934.922 394.556 2957.702 394.323 2979.841 394.09L3008.754 482.704L2940.279 482.703L2911.555 394.786Z"></path><path d="M2976.626 384.235C2954.427 384.292 2931.592 384.358 2908.173 384.435L2892.234 335.648L2881.137 384.526C2842.902 384.661 2803.219 384.821 2762.304 385.005L2744.944 331.799C2768.218 331.527 2790.937 331.255 2813.069 330.983L2817.642 345.027L2820.868 330.886C2869.784 330.281 2915.806 329.676 2958.628 329.074L2976.626 384.235Z"></path><path d="M2969.378 214.63C3044.244 213.342 3086.701 212.137 3086.692 211.136C3086.684 210.162 3046.468 209.493 2975.312 209.126C2979.778 205.756 2985.192 203.126 2991.637 201.461C3000.614 198.976 3009.897 197.802 3019.203 197.974L3042.786 197.975L3133.419 197.976L3172.204 317.091C3141.312 316.888 3106.139 316.728 3067.049 316.611L3063.162 304.672L3099.686 304.672L3092.95 283.973C3091.783 279.908 3089.569 276.229 3086.534 273.312C3083.267 270.568 3079.111 269.141 3074.865 269.307L3038.407 269.311C3036.672 269.397 3032.586 269.913 3031.686 270.777C3030.815 271.613 3030.878 274.769 3031.231 276.106C3031.231 276.106 3035.644 289.668 3044.391 316.549C3022.597 316.495 2999.693 316.453 2975.729 316.424L2965.129 284.025L2960.262 265.654C2955.871 247.128 2957.957 227.632 2969.378 214.63Z"></path><path d="M3001.065 393.863C3024.6 393.609 3047.366 393.353 3069.297 393.097C3070.437 396.6 3070.472 396.708 3070.472 396.708C3071.639 400.773 3073.853 404.452 3076.888 407.369C3080.155 410.113 3084.312 411.54 3088.557 411.374L3203.085 411.371L3226.312 482.708L3107.864 482.706C3052.693 483.617 3017.572 447.743 3003.225 400.463L3001.065 393.863Z"></path><path d="M3066.355 384.053C3044.348 384.085 3021.506 384.128 2997.898 384.183L2979.77 328.774C3003.6 328.431 3026.375 328.09 3048.036 327.751C3055.88 351.861 3065.872 382.57 3066.355 384.053Z"></path><path d="M3070.56 327.393C3109.405 326.765 3144.325 326.145 3174.955 325.539L3175.496 327.202L3191.388 376.01L3086.389 376.009L3070.56 327.393Z"></path><path d="M3217.761 391.167C3242.534 390.803 3265.26 390.443 3285.742 390.089C3287.703 396.509 3290.583 403.895 3294.452 407.372C3297.719 410.116 3301.875 411.543 3306.121 411.377L3420.648 411.374L3443.876 482.711L3325.428 482.709C3270.355 483.619 3235.098 447.745 3220.787 400.462L3217.761 391.167Z"></path><path d="M3284.096 384.218C3263.516 384.132 3240.705 384.071 3215.853 384.033L3212.675 371.968C3208.675 355.044 3210.111 337.375 3219.136 324.606C3287.754 323.049 3325.37 321.598 3325.36 320.34C3325.351 319.121 3290.072 318.184 3225.536 317.528C3230.389 313.315 3236.518 310.062 3244.059 308.127C3253.001 305.667 3262.243 304.505 3271.508 304.675C3276.875 304.725 3309.221 304.737 3312.386 304.21C3314.942 303.784 3315.441 300.314 3314.849 297.972C3313.179 291.362 3309.634 278.291 3304.098 273.315C3300.831 270.571 3296.675 269.145 3292.429 269.31L3177.902 269.313L3154.674 197.977L3273.122 197.978C3296.078 197.219 3318.626 204.225 3337.192 217.885L3337.486 218.114C3356.88 234.171 3370.937 255.848 3377.763 280.226L3380.935 289.967L3385.8 308.333C3392.557 336.843 3383.135 365.102 3354.382 372.538C3345.418 375.015 3336.15 376.185 3326.859 376.012C3321.56 375.963 3289.158 375.952 3286.044 376.471C3283.557 376.884 3283.092 380.254 3283.664 382.525C3283.796 383.051 3283.94 383.617 3284.096 384.218Z"></path><path d="M274.834 336.303C188.358 338.092 140.351 339.758 140.362 341.18C140.373 342.616 189.347 343.66 277.448 344.316L294.053 395.208C323.769 395.208 284.787 395.208 225.49 395.208L219.191 375.964L159.839 375.963L194.763 482.661L126.276 482.66L41.695 223.429L110.158 223.429L136.596 304.627L195.956 304.627L169.517 223.429L238.005 223.429L274.834 336.303Z"></path><path d="M237.517 221.931C225.349 221.834 212.176 221.757 198.13 221.704C195.956 221.696 194.53 220.705 194.166 218.951C193.675 216.579 190.939 214.668 188.009 214.668C188.009 214.668 187.746 214.668 166.664 214.668L161.214 197.93L229.686 197.931L237.517 221.931Z"></path><path d="M107.305 214.668C168.176 214.668 157.258 214.668 38.836 214.668L33.374 197.928L101.855 197.929L107.305 214.668Z"></path><path d="M230.443 410.34L298.991 410.34L322.588 482.663L254.115 482.662L230.443 410.34Z"></path><path d="M489.955 332.689C414.125 333.774 348.86 334.845 295.947 335.879L293.058 327.022L259.257 223.429L319.776 223.429C308.657 222.906 287.53 222.455 258.835 222.134L250.938 197.932L319.419 197.933C319.419 197.933 351.002 294.93 351.002 294.93L373.646 294.931L428.614 294.931C455.298 294.932 478.305 309.373 489.955 332.689Z"></path><path d="M298.748 344.462C352.307 344.801 418.283 345.014 494.871 345.102C501.892 366.057 505.908 378.046 508.361 385.367L516.049 408.316L452.962 407.473C450.755 407.443 448.511 407.416 446.23 407.391C446.356 406.132 446.126 404.956 446.05 404.662L438.367 380.929C437.2 376.864 434.986 373.185 431.951 370.268C428.684 367.524 424.528 366.097 420.282 366.263L385.482 366.266L305.864 366.273L298.748 344.462Z"></path><path d="M444.765 410.34L454.077 410.34L516.727 410.34L521.511 424.618C529.213 447.608 517.01 472.557 494.257 480.343C489.527 481.961 485.298 482.665 480.304 482.665C451.552 482.665 343.84 482.663 343.84 482.663L331.454 444.701L320.564 411.326L399.777 411.327L438.85 411.328L443.58 410.862C444.049 410.751 444.44 410.571 444.765 410.34Z"></path><path d="M767.404 197.948L790.154 270.028L583.841 270.181L560.616 197.881L767.404 197.948L767.404 197.948Z"></path><path d="M802.837 308.418L825.743 379.524L617.712 379.485L595.254 308.385L802.837 308.418L802.837 308.418Z"></path><path d="M837.267 418.865L857.592 482.688L648.988 482.587L628.647 418.452L837.267 418.865L837.267 418.865Z"></path><path d="M1909.477 6.722L1916.672 30.991L1872.491 30.991L1894.435 100.994L1865.442 100.994L1835.991 6.722L1909.477 6.722Z"></path><path d="M2004.759 101.624L1975.637 101.624L1946.009 6.722L1975.339 6.722L2004.759 101.624Z"></path><path d="M2021.256 38.215L2017.784 27.164C2015.19 18.909 2019.779 10.114 2028.034 7.52C2029.634 7.017 2031.054 6.799 2032.731 6.799L2032.731 6.799C2041.636 6.799 2092.075 6.799 2092.075 6.799L2099.016 30.977L2047.703 30.977L2062.016 78.207L2114.196 78.207L2121.885 100.905L2059.985 100.941C2048.579 100.828 2038.54 93.311 2035.115 82.317L2021.256 38.215Z"></path><path d="M2487.854 78.972L2497.247 78.972L2497.479 78.972C2496.485 73.752 2478.84 17.019 2475.633 6.745L2503.843 6.745L2533.593 101.765C2533.593 101.765 2498.991 101.816 2494.917 101.765L2487.854 78.972Z"></path><path d="M3101.712 20.003L3097.544 6.65L3126.32 6.61L3130.303 20.003L3139.152 20.003L3146.272 44.338L3137.55 44.338L3139.499 51.358C3143.363 65.279 3153.821 99.662 3154.177 100.847L3118.508 100.649L3059.044 42.76L3051.691 20.003L3101.712 20.003ZM3094.917 44.241C3094.917 44.241 3108.299 57.959 3114.592 63.897L3108.766 44.241L3094.917 44.241Z"></path><path d="M705.271 110.534L680.482 110.214C689.649 66.9 679.582 33.812 651.543 0C651.543 0 677.928 0 677.928 0C704.807 32.194 714.227 69.584 705.271 110.534Z"></path><path d="M389.687 24.596L394.523 42.715C395.498 47.024 394.823 51.545 392.632 55.371C393.179 55.829 393.066 55.653 393.756 56.081L396.325 58.005C398.582 60.856 400.119 64.219 400.806 67.803L404.79 84.236C405.799 92.488 399.995 100.004 391.828 101.023C391.288 101.09 390.745 101.127 390.201 101.135L342.356 101.287C332.927 101.299 322.748 94.931 319.904 85.429L315.267 65.35C315.049 63.311 315.444 61.254 316.399 59.446C316.772 58.774 317.058 58.056 317.249 57.31C308.327 48.999 308.311 39.44 305.24 29.146C302.2 20.349 306.794 10.727 315.5 7.655C317.802 6.843 320.252 6.55 322.678 6.797C322.678 6.797 366.785 6.722 366.785 6.722C377.546 6.749 386.943 14.083 389.687 24.596ZM363.035 30.219L334.118 30.219L336.823 43.263L365.912 43.263L363.035 30.219ZM371.786 66.415L343.983 66.415L346.584 78.958L374.553 78.958L371.786 66.415Z"></path><path d="M528.775 82.695C530.784 90.561 526.102 98.583 518.318 100.613C517.165 100.914 515.98 101.07 514.789 101.079L462.957 101.541C452.218 101.575 442.698 94.568 439.434 84.23L424.46 25.219L424.247 21.508C424.821 13.528 431.309 7.299 439.225 7.127L489.714 6.712C501.385 6.694 511.585 14.668 514.498 26.087L528.775 82.695ZM487.2 30.702L454.526 30.702L466.795 78.573L499.422 78.573L487.2 30.702Z"></path><path d="M632.815 25.156L638.843 49.223C640.869 56.973 636.295 64.915 628.625 66.963C627.433 67.281 626.205 67.443 624.972 67.444L586.262 67.444L588.886 78.914L645.508 78.914L650.151 101.271L566.553 101.271C566.553 101.271 555.735 60.387 555.735 60.387C555.716 60.305 555.697 60.222 555.678 60.139C554.054 52.859 558.639 45.64 565.919 44.016C566.937 43.789 567.818 43.692 568.86 43.692L568.86 43.692C579.796 43.692 610.124 43.692 610.124 43.692L605.99 31.26L549.23 31.26L542.463 6.713C542.463 6.713 609.291 6.713 609.291 6.713C620.407 6.632 630.131 14.256 632.815 25.156Z"></path><path d="M985.089 6.713C996.831 6.6 1007.164 14.518 1010.223 25.972L1024.839 82.151C1026.962 90.475 1022.005 98.963 1013.767 101.11C1012.533 101.431 1011.264 101.597 1009.989 101.602L962.391 101.592C950.789 101.502 940.974 92.904 939.241 81.312L935.259 64.487C933.096 56.557 934.733 47.136 943.306 44.388C946.577 43.41 949.999 43.046 953.4 43.315L986.572 43.315L983.403 30.724L930.643 30.724L923.779 6.713L985.089 6.713ZM992.612 66.696L964.809 66.696L967.41 79.238L995.379 79.238L992.612 66.696Z"></path><path d="M1217.407 40.94L1222.478 63.018L1183.409 62.983L1177.706 40.79L1217.407 40.94Z"></path><path d="M781.399 42.4L788.195 64.097L747.501 63.957L741.939 41.641L781.399 42.4Z"></path><path d="M3248.542 74.058L3243.514 51.708L3399.349 51.714C3405.52 51.714 3410.523 56.717 3410.523 62.889C3410.523 69.061 3405.52 74.064 3399.348 74.063L3248.542 74.058Z"></path><path d="M178.948 51.595L183.975 73.945L11.174 73.938C5.003 73.938 0 68.935 0 62.763C0 56.591 5.004 51.588 11.175 51.589L178.948 51.595Z"></path><path d="M894.812 24.596L899.648 42.715C900.623 47.024 899.948 51.545 897.757 55.371C898.304 55.829 898.191 55.653 898.881 56.081L901.45 58.005C903.707 60.856 905.245 64.219 905.931 67.803L909.916 84.236C910.924 92.488 905.12 100.004 896.954 101.023C896.414 101.09 895.87 101.127 895.326 101.135L847.481 101.287C838.052 101.299 827.873 94.931 825.029 85.429L820.392 65.35C820.174 63.311 820.569 61.254 821.524 59.446C821.898 58.774 822.183 58.056 822.374 57.31C813.453 48.999 813.436 39.44 810.365 29.146C807.325 20.349 811.919 10.727 820.625 7.655C822.927 6.843 825.377 6.55 827.803 6.797C827.803 6.797 871.911 6.722 871.911 6.722C882.671 6.749 892.068 14.083 894.812 24.596ZM868.16 30.219L839.243 30.219L841.948 43.263L871.037 43.263L868.16 30.219ZM876.911 66.415L849.108 66.415L851.709 78.958L879.678 78.958L876.911 66.415Z"></path><path d="M1080.989 101.751C1069.247 101.865 1058.914 93.947 1055.855 82.492L1041.239 26.313C1039.116 17.989 1044.073 9.501 1052.311 7.355C1053.545 7.033 1054.814 6.868 1056.088 6.862L1103.687 6.873C1115.288 6.962 1125.104 15.561 1126.836 27.152L1130.819 43.977C1132.982 51.908 1131.345 61.328 1122.772 64.076C1119.5 65.055 1116.079 65.419 1112.678 65.149L1079.506 65.149L1082.674 77.741L1135.435 77.741L1142.298 101.751L1080.989 101.751ZM1073.466 41.769L1101.269 41.769L1098.668 29.227L1070.699 29.227L1073.466 41.769Z"></path><path d="M1460.201 24.596L1465.037 42.715C1466.012 47.024 1465.337 51.545 1463.146 55.371C1463.693 55.829 1463.58 55.653 1464.27 56.081L1466.839 58.005C1469.096 60.856 1470.633 64.219 1471.32 67.803L1475.304 84.236C1476.313 92.488 1470.509 100.004 1462.342 101.023C1461.803 101.09 1461.259 101.127 1460.715 101.135L1412.87 101.287C1403.441 101.299 1393.262 94.931 1390.418 85.429L1385.781 65.35C1385.563 63.311 1385.958 61.254 1386.913 59.446C1387.287 58.774 1387.572 58.056 1387.763 57.31C1378.842 48.999 1378.825 39.44 1375.754 29.146C1372.714 20.349 1377.308 10.727 1386.014 7.655C1388.316 6.843 1390.766 6.55 1393.192 6.797C1393.192 6.797 1437.3 6.722 1437.3 6.722C1448.06 6.749 1457.457 14.083 1460.201 24.596ZM1433.549 30.219L1404.632 30.219L1407.337 43.263L1436.426 43.263L1433.549 30.219ZM1442.3 66.415L1414.497 66.415L1417.098 78.958L1445.067 78.958L1442.3 66.415Z"></path><path d="M1299.117 101.751C1287.376 101.865 1277.043 93.947 1273.984 82.492L1259.368 26.313C1257.245 17.989 1262.202 9.501 1270.44 7.355C1271.674 7.033 1272.943 6.868 1274.217 6.862L1321.816 6.873C1333.417 6.962 1343.233 15.561 1344.965 27.152L1348.948 43.977C1351.111 51.908 1349.474 61.328 1340.901 64.076C1337.629 65.055 1334.208 65.419 1330.807 65.149L1297.635 65.149L1300.803 77.741L1353.564 77.741L1360.427 101.751L1299.117 101.751ZM1291.595 41.769L1319.398 41.769L1316.797 29.227L1288.828 29.227L1291.595 41.769Z"></path><path d="M1597.71 82.695C1599.719 90.561 1595.037 98.583 1587.252 100.613C1586.099 100.914 1584.914 101.07 1583.723 101.079L1531.892 101.541C1521.153 101.575 1511.632 94.568 1508.369 84.23L1493.395 25.219L1493.181 21.508C1493.755 13.528 1500.243 7.299 1508.16 7.127L1558.649 6.712C1570.32 6.694 1580.519 14.668 1583.433 26.087L1597.71 82.695ZM1556.134 30.702L1523.461 30.702L1535.729 78.573L1568.356 78.573L1556.134 30.702Z"></path><path d="M1636.223 101.332L1631.768 84.248L1630.389 78.958L1682.993 78.958L1679.592 65.913L1642.168 65.913L1636.261 43.263L1673.823 43.263L1670.421 30.219L1617.829 30.219L1616.269 24.235L1611.73 6.829L1639.165 6.783C1651.982 6.761 1674.765 6.722 1674.765 6.722C1685.525 6.749 1694.922 14.083 1697.666 24.596L1702.502 42.715C1703.477 47.024 1702.802 51.545 1700.611 55.371C1701.158 55.829 1701.045 55.653 1701.736 56.081L1704.304 58.005C1706.561 60.856 1708.099 64.219 1708.785 67.803L1712.77 84.236C1713.778 92.488 1707.975 100.004 1699.808 101.023C1699.268 101.09 1698.724 101.127 1698.18 101.135C1698.18 101.135 1685.045 101.177 1672.539 101.216L1636.223 101.332Z"></path><path d="M2235.38 29.898L2242.735 29.916L2235.493 6.722L2260.21 6.722L2267.418 29.976L2280.394 30.007L2287.318 51.623L2274.111 51.564L2276.499 59.267L2289.658 59.299L2296.583 80.914L2283.191 80.855L2289.63 101.624L2265.122 101.624L2258.604 80.746L2251.132 80.713L2257.615 101.624L2233.107 101.624L2226.545 80.604L2216.692 80.56L2209.817 59.105L2219.84 59.129L2217.4 51.313L2207.428 51.269L2200.552 29.814L2210.696 29.838L2203.479 6.722L2228.195 6.722L2235.38 29.898ZM2249.459 51.455L2242.052 51.422L2244.46 59.189L2251.879 59.207L2249.459 51.455Z"></path><path d="M2408.324 78.972L2417.717 78.972L2417.95 78.972C2416.955 73.752 2399.31 17.019 2396.103 6.745L2424.313 6.745L2454.063 101.765C2454.063 101.765 2419.461 101.816 2415.388 101.765L2408.324 78.972Z"></path><path d="M275.29 110.534L299.934 110.214C271.012 66.9 265.987 33.812 278.607 0C278.607 0 252.221 0 252.221 0C240.026 32.194 247.658 69.584 275.29 110.534Z"></path></g></svg>